<svg width="20" height="20" viewBox="0 0 20 20" fill="none" xmlns="http://www.w3.org/2000/svg">
<g opacity="0.75">
<path d="M18.1586 3.13672H1.84144C0.826115 3.13672 0 3.96283 0 4.97816V15.0218C0 16.0371 0.826115 16.8632 1.84144 16.8632H18.1586C19.1739 16.8632 20 16.0371 20 15.0218V4.97816C20 3.96276 19.1739 3.13672 18.1586 3.13672ZM18.8491 15.0218C18.8491 15.4025 18.5394 15.7123 18.1586 15.7123H1.84144C1.46064 15.7123 1.1509 15.4025 1.1509 15.0218V4.97816C1.1509 4.59744 1.46064 4.28762 1.84144 4.28762H18.1586C18.5394 4.28762 18.8491 4.59744 18.8491 4.97816V15.0218Z" fill="currentColor"/>
<path d="M16.576 6.42224H11.287C11.0327 6.42224 10.8267 6.62841 10.8267 6.8826C10.8267 7.1368 11.0327 7.34296 11.287 7.34296H16.576C16.8303 7.34296 17.0364 7.1368 17.0364 6.8826C17.0364 6.62841 16.8303 6.42224 16.576 6.42224Z" fill="currentColor"/>
<path d="M16.576 12.657H11.287C11.0327 12.657 10.8267 12.8631 10.8267 13.1174C10.8267 13.3716 11.0327 13.5778 11.287 13.5778H16.576C16.8303 13.5778 17.0364 13.3716 17.0364 13.1174C17.0364 12.8631 16.8303 12.657 16.576 12.657Z" fill="currentColor"/>
<path d="M16.576 9.08527H13.3752C13.121 9.08527 12.9148 9.29143 12.9148 9.54562C12.9148 9.79982 13.121 10.006 13.3752 10.006H16.576C16.8303 10.006 17.0364 9.79982 17.0364 9.54562C17.0364 9.29143 16.8303 9.08527 16.576 9.08527Z" fill="currentColor"/>
<path d="M16.576 10.871H13.3752C13.121 10.871 12.9148 11.0772 12.9148 11.3314C12.9148 11.5857 13.121 11.7918 13.3752 11.7918H16.576C16.8303 11.7918 17.0364 11.5857 17.0364 11.3314C17.0364 11.0772 16.8303 10.871 16.576 10.871Z" fill="currentColor"/>
<path d="M6.53426 10.215C7.83892 10.215 8.90036 9.15321 8.90036 7.84809C8.90036 6.5429 7.83892 5.48108 6.53426 5.48108C5.22922 5.48108 4.16748 6.5429 4.16748 7.84809C4.16748 9.15321 5.22922 10.215 6.53426 10.215ZM6.53426 6.63205C7.20432 6.63205 7.74946 7.17758 7.74946 7.84817C7.74946 8.51868 7.20439 9.06421 6.53426 9.06421C5.86383 9.06421 5.31838 8.51868 5.31838 7.84817C5.31838 7.17758 5.86383 6.63205 6.53426 6.63205Z" fill="currentColor"/>
<path d="M7.44996 10.6404H5.63292C4.35987 10.6404 3.32422 11.676 3.32422 12.949V13.9434C3.32422 14.2612 3.58179 14.5189 3.89967 14.5189C4.21755 14.5189 4.47512 14.2612 4.47512 13.9434V12.949C4.47512 12.3107 4.99456 11.7913 5.63292 11.7913H7.44996C8.08832 11.7913 8.60776 12.3106 8.60776 12.949V13.9434C8.60776 14.2612 8.86533 14.5189 9.18321 14.5189C9.50109 14.5189 9.75866 14.2612 9.75866 13.9434V12.949C9.75866 11.676 8.72293 10.6404 7.44996 10.6404Z" fill="currentColor"/>
</g>
</svg>
