<svg width="16" height="15" viewBox="0 0 16 15" fill="none" xmlns="http://www.w3.org/2000/svg">
<g opacity="0.75">
<path d="M14.0286 3.46462H8.96455C8.75898 3.46462 8.5582 3.38549 8.41955 3.25099L6.83946 1.69053C6.45964 1.3356 5.93999 1.15021 5.41368 1.15305H1.97137C0.884405 1.15302 0 1.98215 0 3.00115V11.9989C0 13.0179 0.884405 13.847 1.97137 13.847H14.0358H14.0377C15.124 13.8425 16.0048 13.0094 16 11.9932V5.31276C16 4.29372 15.1156 3.46462 14.0286 3.46462ZM14.7943 11.9955C14.7961 12.3911 14.4543 12.715 14.0347 12.7167H1.97137C1.54937 12.7167 1.20575 12.3945 1.20575 11.9989V3.00115C1.20575 2.60553 1.54937 2.28338 1.97137 2.28279H5.42937C5.43599 2.28279 5.44262 2.28279 5.44927 2.28279C5.65061 2.28279 5.84596 2.35797 5.97736 2.48005L7.54902 4.03316C7.91795 4.39035 8.43402 4.59495 8.96455 4.59495H14.0286C14.4506 4.59495 14.7942 4.9171 14.7942 5.31273V11.9955H14.7943Z" fill="black"/>
</g>
</svg>
