<svg width="14" height="17" viewBox="0 0 14 17" fill="none" xmlns="http://www.w3.org/2000/svg">
<path d="M13.701 4.1302L9.48231 0.145928C9.38384 0.0528926 9.24944 0 9.10938 0H1.72656C0.85423 0 0.144531 0.670272 0.144531 1.49414V15.5059C0.144531 16.3297 0.85423 17 1.72656 17H12.2734C13.1458 17 13.8555 16.3297 13.8555 15.5059V4.48242C13.8555 4.34662 13.7951 4.21909 13.701 4.1302ZM9.63672 1.70043L12.055 3.98438H10.1641C9.87329 3.98438 9.63672 3.76095 9.63672 3.48633V1.70043ZM12.2734 16.0039H1.72656C1.43579 16.0039 1.19922 15.7805 1.19922 15.5059V1.49414C1.19922 1.21952 1.43579 0.996094 1.72656 0.996094H8.58203V3.48633C8.58203 4.3102 9.29173 4.98047 10.1641 4.98047H12.8008V15.5059C12.8008 15.7805 12.5642 16.0039 12.2734 16.0039Z" fill="black"/>
<path d="M10.1641 7.03906H3.83594C3.5447 7.03906 3.30859 7.26205 3.30859 7.53711C3.30859 7.81216 3.5447 8.03516 3.83594 8.03516H10.1641C10.4553 8.03516 10.6914 7.81216 10.6914 7.53711C10.6914 7.26205 10.4553 7.03906 10.1641 7.03906Z" fill="black"/>
<path d="M10.1641 9.03125H3.83594C3.5447 9.03125 3.30859 9.25424 3.30859 9.5293C3.30859 9.80435 3.5447 10.0273 3.83594 10.0273H10.1641C10.4553 10.0273 10.6914 9.80435 10.6914 9.5293C10.6914 9.25424 10.4553 9.03125 10.1641 9.03125Z" fill="black"/>
<path d="M10.1641 11.0234H3.83594C3.5447 11.0234 3.30859 11.2464 3.30859 11.5215C3.30859 11.7965 3.5447 12.0195 3.83594 12.0195H10.1641C10.4553 12.0195 10.6914 11.7965 10.6914 11.5215C10.6914 11.2464 10.4553 11.0234 10.1641 11.0234Z" fill="black"/>
<path d="M8.05469 13.0156H3.83594C3.5447 13.0156 3.30859 13.2386 3.30859 13.5137C3.30859 13.7887 3.5447 14.0117 3.83594 14.0117H8.05469C8.34592 14.0117 8.58203 13.7887 8.58203 13.5137C8.58203 13.2386 8.34592 13.0156 8.05469 13.0156Z" fill="black"/>
</svg>
