<svg width="16" height="16" viewBox="0 0 16 16" fill="none" xmlns="http://www.w3.org/2000/svg">
<g opacity="0.75">
<path d="M7.97344 14.6446H1.99334C1.62656 14.6446 1.32891 14.3469 1.32891 13.9801V2.01999C1.32891 1.65321 1.62659 1.35555 1.99334 1.35555H7.97344C8.34087 1.35555 8.63787 1.05855 8.63787 0.691111C8.63787 0.323674 8.34087 0.0266113 7.97344 0.0266113H1.99334C0.894344 0.0266113 0 0.920986 0 2.01999V13.9801C0 15.0791 0.894344 15.9735 1.99334 15.9735H7.97344C8.34087 15.9735 8.63787 15.6765 8.63787 15.309C8.63787 14.9416 8.34087 14.6446 7.97344 14.6446Z" fill="black"/>
<path d="M15.8018 7.52689L11.7619 3.54017C11.5014 3.28236 11.0802 3.2857 10.8224 3.54682C10.5646 3.80795 10.5672 4.22854 10.829 4.48636L13.7161 7.33551H5.97987C5.61243 7.33551 5.31543 7.63251 5.31543 7.99995C5.31543 8.36739 5.61243 8.66442 5.97987 8.66442H13.7161L10.829 11.5136C10.5673 11.7714 10.5653 12.192 10.8224 12.4531C10.9526 12.5847 11.124 12.6511 11.2955 12.6511C11.4643 12.6511 11.633 12.5873 11.7619 12.4597L15.8018 8.47301C15.928 8.34811 15.9998 8.17798 15.9998 7.99992C15.9998 7.82192 15.9287 7.65248 15.8018 7.52689Z" fill="black"/>
</g>
</svg>
